<?xml version="1.0" encoding="utf-8"?>
<!-- Generator: Adobe Illustrator 27.5.0, SVG Export Plug-In . SVG Version: 6.00 Build 0)  -->
<svg version="1.1" xmlns="http://www.w3.org/2000/svg" xmlns:xlink="http://www.w3.org/1999/xlink" x="0px" y="0px"
	 viewBox="0 0 4975 4975" style="enable-background:new 0 0 4975 4975;" xml:space="preserve">
<g id="Layer_1">
	<rect x="9.001" width="4975.001" height="4975"/>
</g>
<g id="Isolation_Mode">
	<g>
		<path style="fill:#1C442A;" d="M2472.812,2355.389c8.292,8.183,14.761,16.366,20.749,24.549
			c5.894,8.184,11.106,16.368,15.759,24.55c9.271,16.367,16.497,32.733,22.059,49.101c11.123,32.733,15.947,65.466,16.047,98.199
			c0.039,32.733-4.74,65.467-15.83,98.201c-5.561,16.365-12.793,32.732-22.094,49.098c-4.668,8.184-9.904,16.367-15.829,24.551
			c-6.011,8.184-12.517,16.367-20.86,24.551c-8.346-8.184-14.85-16.367-20.859-24.551c-5.928-8.184-11.162-16.367-15.829-24.551
			c-9.302-16.365-16.535-32.732-22.097-49.098c-11.088-32.734-15.868-65.468-15.828-98.201c0.1-32.733,4.923-65.466,16.046-98.199
			c5.563-16.367,12.79-32.733,22.061-49.101c4.652-8.182,9.863-16.366,15.758-24.55
			C2458.05,2371.755,2464.519,2363.572,2472.812,2355.389z"/>
		<path style="fill:#009444;" d="M2472.812,1907.156c8.292,8.183,14.761,16.367,20.749,24.55
			c5.894,8.183,11.106,16.366,15.759,24.55c9.271,16.366,16.497,32.732,22.059,49.099c11.123,32.734,15.947,65.467,16.047,98.201
			c0.039,32.733-4.74,65.466-15.83,98.199c-5.561,16.367-12.793,32.733-22.094,49.1c-4.668,8.183-9.904,16.367-15.829,24.55
			c-6.011,8.184-12.517,16.367-20.86,24.55c-8.346-8.183-14.85-16.366-20.859-24.55c-5.928-8.183-11.162-16.367-15.829-24.55
			c-9.302-16.366-16.535-32.732-22.097-49.1c-11.088-32.733-15.869-65.466-15.828-98.199c0.1-32.733,4.923-65.467,16.046-98.201
			c5.563-16.366,12.79-32.732,22.061-49.099c4.652-8.184,9.863-16.368,15.758-24.55
			C2458.05,1923.523,2464.519,1915.339,2472.812,1907.156z"/>
		<path style="fill:#1C442A;" d="M2796.45,2477.392c-11.623,0.812-21.861,2.81-31.732,5.122c-9.803,2.374-19.087,5.19-27.947,8.372
			c-17.692,6.385-33.834,14.101-48.713,22.899c-29.757,17.6-54.733,39.302-76.12,64.08c-21.347,24.817-39.032,52.773-51.933,84.835
			c-6.436,16.044-11.604,33.174-15.201,51.653c-1.785,9.249-3.142,18.87-3.973,28.938c-0.768,10.125-1.158,20.572-0.152,32.217
			c11.659-0.778,21.928-2.753,31.817-5.05c9.825-2.352,19.127-5.154,27.999-8.325c17.718-6.364,33.862-14.077,48.741-22.876
			c29.729-17.623,54.671-39.353,75.955-64.223c21.238-24.906,38.894-52.891,51.767-84.977c6.434-16.044,11.605-33.171,15.227-51.629
			c1.799-9.24,3.173-18.844,4.027-28.894C2796.997,2499.427,2797.415,2489.003,2796.45,2477.392z"/>
		<path style="fill:#D4BE29;" d="M3551.206,2197.364c-11.367-2.56-21.748-3.588-31.869-4.207
			c-10.071-0.541-19.771-0.511-29.172-0.006c-18.783,1.035-36.459,3.789-53.238,7.945c-33.557,8.313-63.714,21.929-91.316,39.521
			c-27.572,17.642-52.545,39.34-74.106,66.348c-10.773,13.52-20.644,28.445-29.396,45.112c-4.367,8.347-8.428,17.173-12.115,26.579
			c-3.643,9.477-7.018,19.373-9.4,30.814c11.395,2.604,21.797,3.662,31.93,4.301c10.086,0.568,19.801,0.555,29.209,0.066
			c18.799-1.009,36.48-3.76,53.258-7.916c33.539-8.343,63.671-21.995,91.2-39.705c27.498-17.757,52.442-39.494,73.987-66.531
			c10.771-13.521,20.645-28.44,29.415-45.082c4.375-8.334,8.448-17.139,12.153-26.52
			C3545.4,2218.627,3548.794,2208.763,3551.206,2197.364z"/>
		<path style="fill:#009444;" d="M3059.708,2103.556c-11.623,0.815-21.86,2.817-31.731,5.134
			c-9.802,2.376-19.087,5.196-27.942,8.382c-17.691,6.391-33.831,14.113-48.705,22.918c-29.751,17.611-54.717,39.323-76.096,64.11
			c-21.337,24.823-39.012,52.787-51.898,84.854c-6.431,16.046-11.591,33.178-15.183,51.658c-1.782,9.251-3.134,18.872-3.961,28.941
			c-0.764,10.125-1.15,20.572-0.142,32.216c11.661-0.782,21.928-2.762,31.816-5.062c9.823-2.356,19.125-5.162,27.995-8.337
			c17.715-6.37,33.856-14.089,48.732-22.895c29.722-17.636,54.657-39.375,75.931-64.252c21.229-24.915,38.871-52.906,51.732-84.997
			c6.43-16.046,11.596-33.175,15.209-51.634c1.796-9.241,3.163-18.847,4.016-28.896
			C3060.263,2125.588,3060.677,2115.165,3059.708,2103.556z"/>
		<path style="fill:#006838;" d="M2723.022,2103.556c-10.402,5.242-19.074,11.045-27.281,16.996
			c-8.123,5.979-15.596,12.167-22.533,18.528c-13.848,12.731-25.75,26.089-36.067,39.958
			c-20.634,27.739-35.271,57.411-45.411,88.535c-10.086,31.141-15.585,63.761-15.08,98.317c0.271,17.284,2.131,35.08,5.96,53.512
			c1.932,9.222,4.401,18.617,7.528,28.224c3.208,9.633,6.889,19.419,12.318,29.767c10.453-5.227,19.156-11.018,27.389-16.961
			c8.15-5.969,15.646-12.15,22.6-18.507c13.877-12.721,25.783-26.078,36.102-39.946c20.598-27.751,35.197-57.436,45.203-88.602
			c9.956-31.184,15.412-63.817,14.871-98.385c-0.27-17.284-2.124-35.079-5.924-53.501c-1.916-9.215-4.364-18.604-7.461-28.201
			C2732.05,2123.663,2728.402,2113.889,2723.022,2103.556z"/>
		<path style="fill:#D4BE29;" d="M2964.817,1809.985c-10.934,4.025-20.209,8.802-29.041,13.779
			c-8.75,5.015-16.879,10.313-24.496,15.842c-15.207,11.071-28.553,22.988-40.383,35.592
			c-23.658,25.208-41.578,53.021-55.199,82.787c-13.565,29.79-22.742,61.572-26.176,95.961c-1.699,17.202-1.879,35.094-0.174,53.843
			c0.87,9.38,2.253,18.996,4.266,28.896c2.092,9.936,4.635,20.078,8.85,30.977c10.98-4.002,20.285-8.765,29.143-13.732
			c8.776-5.003,16.926-10.291,24.559-15.813c15.236-11.059,28.588-22.973,40.415-35.577c23.626-25.224,41.511-53.053,55.001-82.876
			c13.439-29.847,22.578-61.648,25.977-96.051c1.7-17.202,1.885-35.093,0.207-53.828c-0.854-9.374-2.217-18.98-4.201-28.867
			C2971.496,1830.99,2968.985,1820.865,2964.817,1809.985z"/>
		<path style="fill:#D4BE29;" d="M2691.993,1671.394c-9.898,6.144-18.023,12.69-25.672,19.344
			c-7.563,6.674-14.455,13.5-20.805,20.449c-12.665,13.906-23.34,28.266-32.387,42.993c-18.099,29.455-30.055,60.307-37.402,92.206
			c-7.289,31.911-9.879,64.89-6.318,99.266c1.8,17.192,5.226,34.755,10.67,52.774c2.741,9.014,6.032,18.154,9.996,27.446
			c4.048,9.312,8.583,18.733,14.905,28.562c9.95-6.132,18.106-12.67,25.78-19.319c7.592-6.667,14.51-13.488,20.874-20.434
			c12.698-13.9,23.374-28.259,32.425-42.985c18.061-29.464,29.977-60.325,37.186-92.253c7.154-31.943,9.703-64.931,6.107-99.315
			c-1.8-17.192-5.222-34.753-10.637-52.767c-2.723-9.009-5.992-18.146-9.928-27.431
			C2702.765,1690.623,2698.266,1681.21,2691.993,1671.394z"/>
		<path style="fill:#009444;" d="M3417.456,2484.463c-10.527-4.989-20.431-8.268-30.17-11.092
			c-9.706-2.737-19.177-4.834-28.46-6.403c-18.551-3.109-36.402-4.298-53.683-3.923c-34.564,0.752-66.973,7.423-97.762,18.535
			c-30.771,11.166-59.891,26.862-86.852,48.483c-13.476,10.827-26.378,23.226-38.572,37.568
			c-6.092,7.186-11.988,14.904-17.65,23.273c-5.631,8.449-11.094,17.363-15.926,28.004c10.545,5.039,20.461,8.351,30.207,11.198
			c9.717,2.767,19.197,4.885,28.484,6.47c18.562,3.14,36.416,4.331,53.697,3.956c34.551-0.786,66.944-7.499,97.686-18.739
			c30.723-11.297,59.828-27.034,86.776-48.688c13.477-10.828,26.38-23.222,38.584-37.534c6.099-7.172,12.003-14.869,17.673-23.209
			C3407.132,2503.936,3412.606,2495.057,3417.456,2484.463z"/>
		<path style="fill:#006838;" d="M3146.524,2361.904c-11.496-1.899-21.918-2.322-32.057-2.354
			c-10.087,0.041-19.771,0.634-29.124,1.681c-18.69,2.12-36.18,5.894-52.69,11.015c-33.02,10.241-62.337,25.579-88.875,44.741
			c-26.506,19.206-50.178,42.314-70.141,70.525c-9.973,14.119-18.963,29.59-26.735,46.736c-3.876,8.588-7.417,17.634-10.556,27.236
			c-3.09,9.672-5.885,19.746-7.6,31.306c11.523,1.942,21.969,2.395,32.121,2.446c10.104-0.016,19.801-0.591,29.164-1.624
			c18.71-2.095,36.203-5.864,52.713-10.985c32.998-10.271,62.29-25.643,88.748-44.918c26.423-19.32,50.069-42.463,70.012-70.702
			c9.97-14.12,18.963-29.587,26.756-46.708c3.887-8.573,7.442-17.6,10.598-27.18
			C3141.96,2383.467,3144.776,2373.423,3146.524,2361.904z"/>
		<path style="fill:#D4BE29;" d="M3341.467,1998.092c-11.636,0.601-21.909,2.412-31.821,4.546
			c-9.843,2.194-19.177,4.843-28.092,7.864c-17.806,6.063-34.084,13.485-49.121,22.014c-30.07,17.058-55.435,38.304-77.268,62.691
			c-21.791,24.425-39.982,52.056-53.459,83.881c-6.725,15.923-12.203,32.957-16.135,51.368c-1.953,9.217-3.48,18.81-4.495,28.863
			c-0.952,10.107-1.53,20.546-0.737,32.206c11.674-0.564,21.973-2.353,31.902-4.472c9.868-2.174,19.219-4.806,28.145-7.815
			c17.83-6.043,34.115-13.462,49.148-21.991c30.043-17.083,55.377-38.355,77.106-62.836c21.687-24.519,39.843-52.178,53.296-84.025
			c6.724-15.924,12.204-32.955,16.16-51.345c1.965-9.206,3.512-18.783,4.549-28.816
			C3341.614,2020.132,3342.222,2009.718,3341.467,1998.092z"/>
		<path style="fill:#F9ED32;" d="M3282.28,1726.073c-11.505,1.841-21.527,4.74-31.152,7.921c-9.555,3.234-18.551,6.864-27.092,10.82
			c-17.057,7.933-32.449,17.051-46.486,27.138c-28.074,20.173-51.025,44.009-70.125,70.59
			c-19.058,26.615-34.191,56.031-44.188,89.115c-4.987,16.55-8.613,34.071-10.555,52.798c-0.957,9.372-1.451,19.074-1.387,29.178
			c0.136,10.151,0.675,20.591,2.71,32.101c11.546-1.809,21.596-4.688,31.242-7.855c9.579-3.216,18.594-6.834,27.149-10.779
			c17.08-7.914,32.479-17.031,46.515-27.118c28.046-20.195,50.96-44.053,69.95-70.717c18.941-26.695,34.039-56.136,44.01-89.24
			c4.985-16.551,8.613-34.071,10.581-52.777c0.972-9.363,1.484-19.052,1.444-29.137
			C3284.78,1747.972,3284.271,1737.552,3282.28,1726.073z"/>
		<path style="fill:#F9ED32;" d="M2975.458,1483.313c-11.021,3.774-20.402,8.338-29.347,13.113
			c-8.862,4.814-17.11,9.925-24.853,15.279c-15.453,10.723-29.068,22.331-41.18,34.662c-24.229,24.662-42.781,52.062-57.072,81.508
			c-14.24,29.472-24.143,61.037-28.354,95.34c-2.093,17.158-2.681,35.042-1.403,53.824c0.655,9.399,1.822,19.043,3.606,28.987
			c1.862,9.98,4.174,20.176,8.142,31.17c11.066-3.75,20.479-8.299,29.446-13.064c8.89-4.801,17.157-9.902,24.913-15.248
			c15.482-10.708,29.104-22.317,41.215-34.648c24.195-24.679,42.707-52.093,56.875-81.602c14.115-29.532,23.977-61.116,28.16-95.435
			c2.092-17.158,2.682-35.041,1.432-53.809c-0.637-9.392-1.782-19.025-3.542-28.957
			C2981.655,1504.463,2979.375,1494.284,2975.458,1483.313z"/>
		<path style="fill:#F9ED32;" d="M2486.445,1454.884c-8.864,7.56-15.913,15.25-22.479,22.977
			c-6.475,7.733-12.267,15.515-17.502,23.34c-10.436,15.648-18.834,31.445-25.571,47.363
			c-13.476,31.838-20.668,64.136-23.145,96.773c-2.42,32.644-0.035,65.639,8.646,99.091c4.355,16.728,10.379,33.578,18.466,50.578
			c4.061,8.501,8.688,17.042,14.001,25.635c5.397,8.599,11.292,17.233,19.021,26.002c8.917-7.554,16-15.242,22.59-22.968
			c6.506-7.729,12.321-15.511,17.572-23.333c10.465-15.646,18.871-31.446,25.606-47.364c13.438-31.841,20.587-64.138,22.927-96.789
			c2.282-32.653-0.147-65.65-8.861-99.106c-4.356-16.727-10.376-33.577-18.432-50.574c-4.043-8.501-8.647-17.04-13.931-25.631
			C2499.978,1472.281,2494.12,1463.65,2486.445,1454.884z"/>
		<path style="fill:#F9ED32;" d="M3669.567,1891.609c-11.62-0.822-22.039-0.279-32.139,0.63c-10.037,0.976-19.625,2.465-28.84,4.375
			c-18.412,3.845-35.477,9.224-51.44,15.854c-31.927,13.259-59.698,31.25-84.343,52.791c-24.611,21.583-46.039,46.786-63.299,76.729
			c-8.619,14.982-16.135,31.221-22.287,49.013c-3.06,8.911-5.748,18.244-7.982,28.098c-2.18,9.916-4.027,20.206-4.662,31.876
			c11.654,0.864,22.095,0.347,32.209-0.544c10.059-0.952,19.66-2.424,28.889-4.321c18.432-3.821,35.502-9.198,51.465-15.828
			c31.904-13.288,59.643-31.308,84.199-52.955c24.518-21.687,45.914-46.923,63.152-76.891c8.621-14.983,16.138-31.218,22.309-48.987
			c3.076-8.897,5.779-18.215,8.033-28.045C3667.024,1913.503,3668.896,1903.242,3669.567,1891.609z"/>
		<path style="fill:#F9ED32;" d="M3835.865,2294.763c-10.627-4.774-20.595-7.852-30.39-10.478
			c-9.758-2.541-19.272-4.445-28.584-5.826c-18.609-2.732-36.48-3.56-53.752-2.833c-34.541,1.451-66.809,8.777-97.364,20.511
			c-30.54,11.785-59.335,28.067-85.853,50.233c-13.253,11.096-25.9,23.752-37.803,38.338c-5.944,7.311-11.682,15.148-17.175,23.629
			c-5.459,8.559-10.741,17.582-15.354,28.32c10.643,4.826,20.624,7.934,30.426,10.583c9.771,2.57,19.293,4.493,28.611,5.892
			c18.619,2.762,36.496,3.594,53.765,2.867c34.528-1.487,66.778-8.851,97.288-20.715c30.484-11.916,59.266-28.239,85.771-50.436
			c13.252-11.098,25.902-23.75,37.814-38.307c5.951-7.293,11.699-15.11,17.201-23.563
			C3825.937,2314.442,3831.229,2305.453,3835.865,2294.763z"/>
		<path style="fill:#1C442A;" d="M2151.944,2477.392c11.623,0.812,21.862,2.81,31.733,5.122c9.802,2.374,19.086,5.19,27.945,8.372
			c17.694,6.385,33.835,14.101,48.714,22.899c29.756,17.6,54.732,39.302,76.121,64.08c21.345,24.817,39.032,52.773,51.931,84.835
			c6.436,16.044,11.604,33.174,15.202,51.653c1.785,9.249,3.142,18.87,3.974,28.938c0.766,10.125,1.157,20.572,0.152,32.217
			c-11.66-0.778-21.928-2.753-31.817-5.05c-9.825-2.352-19.128-5.154-28-8.325c-17.717-6.364-33.863-14.077-48.741-22.876
			c-29.729-17.623-54.673-39.353-75.956-64.223c-21.239-24.906-38.894-52.891-51.766-84.977
			c-6.435-16.044-11.607-33.171-15.228-51.629c-1.798-9.24-3.173-18.844-4.027-28.894
			C2151.397,2499.427,2150.98,2489.003,2151.944,2477.392z"/>
		<path style="fill:#D4BE29;" d="M1397.189,2197.364c11.366-2.56,21.747-3.588,31.868-4.207c10.07-0.541,19.772-0.511,29.171-0.006
			c18.783,1.035,36.459,3.789,53.238,7.945c33.558,8.313,63.714,21.929,91.317,39.521c27.572,17.642,52.543,39.34,74.106,66.348
			c10.772,13.52,20.643,28.445,29.396,45.112c4.367,8.347,8.428,17.173,12.115,26.579c3.643,9.477,7.017,19.373,9.399,30.814
			c-11.393,2.604-21.795,3.662-31.928,4.301c-10.086,0.568-19.801,0.555-29.21,0.066c-18.799-1.009-36.479-3.76-53.256-7.916
			c-33.539-8.343-63.671-21.995-91.201-39.705c-27.498-17.757-52.443-39.494-73.987-66.531
			c-10.771-13.521-20.645-28.44-29.414-45.082c-4.376-8.334-8.45-17.139-12.155-26.52
			C1402.994,2218.627,1399.601,2208.763,1397.189,2197.364z"/>
		<path style="fill:#D4BE29;" d="M1206.517,2579.167c9.938-6.081,19.436-10.396,28.819-14.239
			c9.361-3.752,18.557-6.846,27.618-9.393c18.117-5.065,35.739-8.146,52.963-9.609c34.448-2.928,67.382,0.258,99.178,8.031
			c31.783,7.831,62.409,20.34,91.515,38.971c14.55,9.334,28.698,20.289,42.35,33.254c6.821,6.497,13.506,13.547,20.023,21.266
			c6.499,7.801,12.878,16.084,18.816,26.15c-9.949,6.132-19.458,10.48-28.846,14.347c-9.367,3.784-18.57,6.897-27.635,9.464
			c-18.124,5.094-35.749,8.179-52.971,9.643c-34.439,2.893-67.362-0.334-99.126-8.244c-31.75-7.963-62.363-20.518-91.462-39.183
			c-14.549-9.334-28.698-20.283-42.356-33.218c-6.825-6.482-13.516-13.508-20.043-21.197
			C1218.855,2597.431,1212.468,2589.183,1206.517,2579.167z"/>
		<path style="fill:#009444;" d="M1888.687,2103.556c11.623,0.815,21.86,2.817,31.731,5.134c9.801,2.376,19.086,5.196,27.942,8.382
			c17.691,6.391,33.831,14.113,48.706,22.918c29.75,17.611,54.716,39.323,76.095,64.11c21.337,24.823,39.012,52.787,51.898,84.854
			c6.431,16.046,11.592,33.178,15.183,51.658c1.782,9.251,3.134,18.872,3.962,28.941c0.762,10.125,1.149,20.572,0.14,32.216
			c-11.661-0.782-21.927-2.762-31.816-5.062c-9.823-2.356-19.125-5.162-27.995-8.337c-17.715-6.37-33.857-14.089-48.732-22.895
			c-29.721-17.636-54.658-39.375-75.93-64.252c-21.229-24.915-38.873-52.906-51.733-84.997
			c-6.43-16.046-11.595-33.175-15.208-51.634c-1.796-9.241-3.164-18.847-4.016-28.896
			C1888.132,2125.588,1887.718,2115.165,1888.687,2103.556z"/>
		<path style="fill:#006838;" d="M2225.373,2103.556c10.403,5.242,19.074,11.045,27.282,16.996
			c8.122,5.979,15.594,12.167,22.533,18.528c13.847,12.731,25.749,26.089,36.067,39.958c20.634,27.739,35.271,57.411,45.412,88.535
			c10.086,31.141,15.583,63.761,15.08,98.317c-0.271,17.284-2.13,35.08-5.96,53.512c-1.931,9.222-4.401,18.617-7.528,28.224
			c-3.208,9.633-6.889,19.419-12.318,29.767c-10.453-5.227-19.156-11.018-27.389-16.961c-8.151-5.969-15.646-12.15-22.6-18.507
			c-13.877-12.721-25.784-26.078-36.101-39.946c-20.6-27.751-35.197-57.436-45.204-88.602
			c-9.955-31.184-15.412-63.817-14.872-98.385c0.27-17.284,2.125-35.079,5.924-53.501c1.916-9.215,4.363-18.604,7.462-28.201
			C2216.345,2123.663,2219.992,2113.889,2225.373,2103.556z"/>
		<path style="fill:#D4BE29;" d="M1983.578,1809.985c10.934,4.025,20.208,8.802,29.04,13.779
			c8.751,5.015,16.879,10.313,24.497,15.842c15.207,11.071,28.553,22.988,40.383,35.592c23.658,25.208,41.579,53.021,55.199,82.787
			c13.566,29.79,22.743,61.572,26.176,95.961c1.7,17.202,1.879,35.094,0.174,53.843c-0.869,9.38-2.253,18.996-4.266,28.896
			c-2.09,9.936-4.634,20.078-8.849,30.977c-10.98-4.002-20.286-8.765-29.143-13.732c-8.777-5.003-16.927-10.291-24.559-15.813
			c-15.236-11.059-28.586-22.973-40.416-35.577c-23.625-25.224-41.51-53.053-55-82.876c-13.439-29.847-22.578-61.648-25.978-96.051
			c-1.7-17.202-1.883-35.093-0.206-53.828c0.853-9.374,2.216-18.98,4.201-28.867
			C1976.899,1830.99,1979.41,1820.865,1983.578,1809.985z"/>
		<path style="fill:#D4BE29;" d="M2256.401,1671.394c9.899,6.144,18.021,12.69,25.672,19.344c7.562,6.674,14.456,13.5,20.805,20.449
			c12.665,13.906,23.34,28.266,32.388,42.993c18.098,29.455,30.054,60.307,37.401,92.206c7.29,31.911,9.879,64.89,6.318,99.266
			c-1.799,17.192-5.226,34.755-10.671,52.774c-2.739,9.014-6.031,18.154-9.995,27.446c-4.048,9.312-8.582,18.733-14.905,28.562
			c-9.95-6.132-18.106-12.67-25.78-19.319c-7.592-6.667-14.51-13.488-20.873-20.434c-12.698-13.9-23.375-28.259-32.425-42.985
			c-18.063-29.464-29.978-60.325-37.188-92.253c-7.154-31.943-9.703-64.931-6.105-99.315c1.799-17.192,5.22-34.753,10.635-52.767
			c2.724-9.009,5.993-18.146,9.929-27.431C2245.631,1690.623,2250.128,1681.21,2256.401,1671.394z"/>
		<path style="fill:#009444;" d="M1530.938,2484.463c10.527-4.989,20.431-8.268,30.169-11.092
			c9.706-2.737,19.179-4.834,28.461-6.403c18.551-3.109,36.402-4.298,53.683-3.923c34.564,0.752,66.972,7.423,97.762,18.535
			c30.771,11.166,59.89,26.862,86.851,48.483c13.476,10.827,26.379,23.226,38.572,37.568c6.091,7.186,11.987,14.904,17.649,23.273
			c5.632,8.449,11.094,17.363,15.927,28.004c-10.545,5.039-20.462,8.351-30.207,11.198c-9.718,2.767-19.198,4.885-28.485,6.47
			c-18.563,3.14-36.417,4.331-53.698,3.956c-34.55-0.786-66.942-7.499-97.685-18.739c-30.723-11.297-59.828-27.034-86.776-48.688
			c-13.476-10.828-26.379-23.222-38.584-37.534c-6.098-7.172-12.003-14.869-17.673-23.209
			C1541.263,2503.936,1535.789,2495.057,1530.938,2484.463z"/>
		<path style="fill:#009444;" d="M1334.937,2819.104c8.694-7.754,17.272-13.69,25.82-19.145
			c8.541-5.362,17.039-10.043,25.502-14.165c16.923-8.212,33.715-14.384,50.401-18.894c33.375-9.021,66.35-11.753,99.022-9.77
			c32.67,2.04,65.033,8.894,96.995,22.039c15.981,6.591,31.855,14.85,47.597,25.175c7.869,5.178,15.702,10.922,23.494,17.355
			c7.784,6.52,15.537,13.533,23.173,22.38c-8.697,7.807-17.279,13.779-25.826,19.258c-8.545,5.394-17.043,10.098-25.507,14.235
			c-16.925,8.244-33.72,14.419-50.407,18.931c-33.371,8.982-66.342,11.671-99.006,9.551c-32.661-2.18-65.021-9.076-96.98-22.258
			c-15.981-6.592-31.854-14.846-47.599-25.139c-7.872-5.162-15.707-10.883-23.498-17.287
			C1350.331,2834.877,1342.576,2827.901,1334.937,2819.104z"/>
		<path style="fill:#006838;" d="M1801.87,2361.904c11.496-1.899,21.919-2.322,32.058-2.354c10.086,0.041,19.77,0.634,29.124,1.681
			c18.69,2.12,36.179,5.894,52.688,11.015c33.02,10.241,62.338,25.579,88.875,44.741c26.506,19.206,50.178,42.314,70.142,70.525
			c9.973,14.119,18.962,29.59,26.735,46.736c3.876,8.588,7.418,17.634,10.556,27.236c3.089,9.672,5.884,19.746,7.6,31.306
			c-11.523,1.942-21.969,2.395-32.122,2.446c-10.104-0.016-19.802-0.591-29.165-1.624c-18.709-2.095-36.203-5.864-52.711-10.985
			c-32.999-10.271-62.292-25.643-88.749-44.918c-26.423-19.32-50.068-42.463-70.013-70.702c-9.97-14.12-18.962-29.587-26.755-46.708
			c-3.886-8.573-7.442-17.6-10.598-27.18C1806.435,2383.467,1803.618,2373.423,1801.87,2361.904z"/>
		<path style="fill:#006838;" d="M1702.422,2728.891c9.207-7.141,18.173-12.473,27.075-17.326
			c8.89-4.764,17.689-8.851,26.415-12.381c17.447-7.03,34.625-12.033,51.582-15.386c33.915-6.706,67-7.169,99.458-2.943
			c32.452,4.278,64.268,13.337,95.251,28.649c15.49,7.672,30.759,17,45.755,28.382c7.496,5.709,14.916,11.979,22.245,18.932
			c7.32,7.036,14.572,14.567,21.582,23.917c-9.211,7.192-18.183,12.561-27.087,17.438c-8.894,4.795-17.697,8.904-26.423,12.45
			c-17.452,7.062-34.631,12.071-51.587,15.423c-33.911,6.669-66.989,7.09-99.431,2.728c-32.434-4.419-64.243-13.521-95.223-28.866
			c-15.488-7.674-30.757-16.999-45.759-28.348c-7.497-5.691-14.921-11.938-22.255-18.861
			C1716.698,2745.684,1709.441,2738.189,1702.422,2728.891z"/>
		<path style="fill:#D4BE29;" d="M1606.928,1998.092c11.635,0.601,21.909,2.412,31.821,4.546c9.844,2.194,19.177,4.843,28.092,7.864
			c17.806,6.063,34.084,13.485,49.12,22.014c30.071,17.058,55.436,38.304,77.269,62.691c21.791,24.425,39.981,52.056,53.458,83.881
			c6.727,15.923,12.204,32.957,16.136,51.368c1.954,9.217,3.48,18.81,4.495,28.863c0.951,10.107,1.531,20.546,0.737,32.206
			c-11.673-0.564-21.973-2.353-31.903-4.472c-9.866-2.174-19.218-4.806-28.144-7.815c-17.83-6.043-34.115-13.462-49.148-21.991
			c-30.044-17.083-55.376-38.355-77.106-62.836c-21.686-24.519-39.844-52.178-53.295-84.025
			c-6.725-15.924-12.206-32.955-16.161-51.345c-1.966-9.206-3.512-18.783-4.549-28.816
			C1606.78,2020.132,1606.174,2009.718,1606.928,1998.092z"/>
		<path style="fill:#F9ED32;" d="M1666.115,1726.073c11.504,1.841,21.525,4.74,31.152,7.921c9.554,3.234,18.55,6.864,27.092,10.82
			c17.055,7.933,32.448,17.051,46.487,27.138c28.074,20.173,51.024,44.009,70.124,70.59c19.056,26.615,34.191,56.031,44.188,89.115
			c4.986,16.55,8.612,34.071,10.554,52.798c0.956,9.372,1.45,19.074,1.385,29.178c-0.134,10.151-0.674,20.591-2.709,32.101
			c-11.546-1.809-21.596-4.688-31.243-7.855c-9.578-3.216-18.594-6.834-27.147-10.779c-17.082-7.914-32.48-17.031-46.517-27.118
			c-28.046-20.195-50.959-44.053-69.948-70.717c-18.943-26.695-34.04-56.136-44.011-89.24c-4.985-16.551-8.614-34.071-10.581-52.777
			c-0.972-9.363-1.484-19.052-1.444-29.137C1663.613,1747.972,1664.124,1737.552,1666.115,1726.073z"/>
		<path style="fill:#F9ED32;" d="M1972.936,1483.313c11.022,3.774,20.403,8.338,29.347,13.113
			c8.863,4.814,17.11,9.925,24.852,15.279c15.454,10.723,29.069,22.331,41.182,34.662c24.228,24.662,42.779,52.062,57.071,81.508
			c14.241,29.472,24.143,61.037,28.354,95.34c2.094,17.158,2.681,35.042,1.404,53.824c-0.656,9.399-1.823,19.043-3.607,28.987
			c-1.863,9.98-4.174,20.176-8.141,31.17c-11.068-3.75-20.48-8.299-29.447-13.064c-8.889-4.801-17.158-9.902-24.914-15.248
			c-15.483-10.708-29.104-22.317-41.215-34.648c-24.194-24.679-42.707-52.093-56.875-81.602
			c-14.115-29.532-23.975-61.116-28.159-95.435c-2.093-17.158-2.683-35.041-1.432-53.809c0.636-9.392,1.783-19.025,3.541-28.957
			C1966.739,1504.463,1969.019,1494.284,1972.936,1483.313z"/>
		<path style="fill:#F9ED32;" d="M1278.827,1891.609c11.621-0.822,22.039-0.279,32.138,0.63c10.038,0.976,19.625,2.465,28.842,4.375
			c18.412,3.845,35.475,9.224,51.439,15.854c31.928,13.259,59.698,31.25,84.343,52.791c24.611,21.583,46.039,46.786,63.297,76.729
			c8.621,14.982,16.135,31.221,22.287,49.013c3.062,8.911,5.75,18.244,7.985,28.098c2.177,9.916,4.027,20.206,4.662,31.876
			c-11.654,0.864-22.095,0.347-32.211-0.544c-10.057-0.952-19.66-2.424-28.887-4.321c-18.432-3.821-35.502-9.198-51.465-15.828
			c-31.904-13.288-59.643-31.308-84.199-52.955c-24.517-21.687-45.914-46.923-63.152-76.891
			c-8.621-14.983-16.138-31.218-22.308-48.987c-3.076-8.897-5.779-18.215-8.033-28.045
			C1281.37,1913.503,1279.498,1903.242,1278.827,1891.609z"/>
		<path style="fill:#F9ED32;" d="M1112.529,2294.763c10.626-4.774,20.595-7.852,30.389-10.478c9.76-2.541,19.273-4.445,28.584-5.826
			c18.611-2.732,36.481-3.56,53.753-2.833c34.541,1.451,66.809,8.777,97.363,20.511c30.541,11.785,59.336,28.067,85.853,50.233
			c13.253,11.096,25.901,23.752,37.804,38.338c5.944,7.311,11.682,15.148,17.174,23.629c5.459,8.559,10.741,17.582,15.355,28.32
			c-10.642,4.826-20.625,7.934-30.426,10.583c-9.771,2.57-19.293,4.493-28.61,5.892c-18.619,2.762-36.497,3.594-53.766,2.867
			c-34.528-1.487-66.778-8.851-97.288-20.715c-30.485-11.916-59.266-28.239-85.771-50.436
			c-13.252-11.098-25.903-23.75-37.816-38.307c-5.951-7.293-11.698-15.11-17.2-23.563
			C1122.458,2314.442,1117.166,2305.453,1112.529,2294.763z"/>
		<path style="fill:#F9ED32;" d="M971.414,1983.783c11.235-3.078,21.56-4.581,31.641-5.664c10.035-1.005,19.729-1.418,29.141-1.346
			c18.81,0.172,36.594,2.111,53.546,5.494c33.903,6.762,64.655,18.979,93.033,35.287c28.356,16.355,54.295,36.886,77.074,62.877
			c11.383,13.008,21.926,27.464,31.437,43.711c4.745,8.141,9.205,16.77,13.323,25.996c4.073,9.299,7.9,19.028,10.802,30.35
			c-11.259,3.126-21.602,4.656-31.695,5.763c-10.051,1.031-19.755,1.462-29.177,1.406c-18.822-0.144-36.615-2.08-53.564-5.462
			c-33.886-6.797-64.613-19.047-92.927-35.477c-28.282-16.477-54.2-37.045-76.963-63.065
			c-11.381-13.009-21.929-27.462-31.453-43.682c-4.754-8.124-9.227-16.734-13.358-25.935
			C978.187,2004.758,974.345,1995.061,971.414,1983.783z"/>
		<path style="fill:#F9ED32;" d="M1356.212,1600.225c11.585,1.221,21.749,3.578,31.533,6.236c9.713,2.716,18.892,5.858,27.633,9.35
			c17.458,7.005,33.317,15.282,47.877,24.6c29.119,18.635,53.317,41.204,73.816,66.719c20.462,25.552,37.153,54.113,48.913,86.611
			c5.87,16.258,10.431,33.56,13.377,52.154c1.458,9.309,2.473,18.969,2.952,29.062c0.41,10.143,0.435,20.598-0.981,32.199
			c-11.625-1.185-21.815-3.522-31.619-6.165c-9.737-2.697-18.933-5.826-27.688-9.306c-17.48-6.982-33.349-15.26-47.906-24.577
			c-29.089-18.661-53.253-41.252-73.648-66.857c-20.348-25.638-37.005-54.227-48.741-86.746
			c-5.868-16.259-10.434-33.559-13.403-52.132c-1.473-9.297-2.505-18.944-3.006-29.018
			C1354.889,1622.226,1354.839,1611.795,1356.212,1600.225z"/>
		<path style="fill:#F9ED32;" d="M1680.946,1370.402c11.29,2.871,21.011,6.661,30.312,10.696
			c9.223,4.081,17.857,8.507,26.006,13.217c16.273,9.437,30.781,19.903,43.853,31.214c26.145,22.619,46.855,48.426,63.482,76.618
			c16.585,28.223,29.005,58.883,35.982,92.733c3.477,16.931,5.508,34.709,5.757,53.533c0.107,9.422-0.275,19.127-1.249,29.185
			c-1.049,10.097-2.525,20.448-5.59,31.726c-11.335-2.84-21.085-6.616-30.408-10.637c-9.249-4.066-17.901-8.482-26.067-13.182
			c-16.297-9.418-30.814-19.886-43.884-31.196c-26.111-22.641-46.785-48.464-63.295-76.73
			c-16.46-28.292-28.844-58.974-35.792-92.841c-3.475-16.932-5.511-34.708-5.786-53.516c-0.124-9.412,0.239-19.107,1.188-29.148
			C1676.48,1391.986,1677.927,1381.656,1680.946,1370.402z"/>
		<path style="fill:#F9ED32;" d="M2191.09,1176.054c9.383,6.904,16.966,14.07,24.069,21.306c7.012,7.248,13.349,14.596,19.13,22.023
			c11.532,14.862,21.041,30.014,28.903,45.41c15.724,30.788,25.214,62.487,30.024,94.862c4.76,32.388,4.743,65.468-1.516,99.457
			c-3.143,16.997-7.943,34.235-14.788,51.771c-3.443,8.771-7.445,17.622-12.128,26.575c-4.768,8.962-10.026,17.999-17.106,27.297
			c-9.437-6.893-17.052-14.056-24.18-21.287c-7.042-7.245-13.4-14.589-19.2-22.014c-11.562-14.854-21.079-30.012-28.938-45.405
			c-15.686-30.795-25.136-62.497-29.81-94.896c-4.618-32.404-4.56-65.492,1.732-99.486c3.146-16.997,7.94-34.234,14.754-51.766
			c3.425-8.768,7.405-17.617,12.059-26.564C2178.838,1194.376,2184.063,1185.348,2191.09,1176.054z"/>
		<path style="fill:#F9ED32;" d="M767.913,2434.786c9.784-6.322,19.174-10.87,28.46-14.943c9.264-3.984,18.382-7.302,27.377-10.072
			c17.986-5.509,35.527-9.023,52.71-10.912c34.364-3.777,67.368-1.404,99.344,5.586c31.969,7.042,62.892,18.793,92.449,36.704
			c14.776,8.969,29.188,19.572,43.156,32.195c6.979,6.33,13.833,13.212,20.543,20.767c6.688,7.637,13.271,15.761,19.452,25.68
			c-9.792,6.375-19.191,10.955-28.481,15.053c-9.272,4.014-18.395,7.353-27.394,10.141c-17.989,5.539-35.537,9.06-52.717,10.947
			c-34.357,3.739-67.35,1.326-99.3-5.799c-31.934-7.18-62.848-18.974-92.399-36.916c-14.774-8.972-29.189-19.57-43.163-32.163
			c-6.983-6.312-13.844-13.172-20.558-20.698C780.696,2452.742,774.108,2444.654,767.913,2434.786z"/>
		<path style="fill:#F9ED32;" d="M883.275,2734.369c8.038-8.433,16.107-15.047,24.185-21.174
			c8.078-6.037,16.169-11.393,24.269-16.186c16.203-9.557,32.439-17.068,48.706-22.916c32.533-11.695,65.179-17.092,97.902-17.761
			c32.73-0.616,65.542,3.592,98.464,14.108c16.461,5.271,32.951,12.217,49.479,21.229c8.264,4.526,16.536,9.618,24.823,15.397
			c8.286,5.865,16.583,12.227,24.909,20.428c-8.033,8.486-16.104,15.132-24.179,21.287c-8.079,6.068-16.169,11.443-24.27,16.256
			c-16.199,9.586-32.44,17.105-48.705,22.951c-32.535,11.657-65.179,17.013-97.91,17.544c-32.727,0.475-65.541-3.777-98.464-14.325
			c-16.461-5.274-32.952-12.216-49.479-21.197c-8.264-4.507-16.537-9.576-24.822-15.327
			C899.897,2748.844,891.603,2742.518,883.275,2734.369z"/>
		<path style="fill:#D4BE29;" d="M3739.105,2579.167c-9.938-6.081-19.436-10.396-28.818-14.239
			c-9.361-3.752-18.557-6.846-27.618-9.393c-18.116-5.065-35.739-8.146-52.963-9.609c-34.448-2.928-67.382,0.258-99.178,8.031
			c-31.783,7.831-62.409,20.34-91.515,38.971c-14.551,9.334-28.699,20.289-42.35,33.254c-6.821,6.497-13.506,13.547-20.023,21.266
			c-6.499,7.801-12.879,16.084-18.816,26.15c9.949,6.132,19.458,10.48,28.846,14.347c9.367,3.784,18.57,6.897,27.635,9.464
			c18.124,5.094,35.75,8.179,52.972,9.643c34.439,2.893,67.362-0.334,99.126-8.244c31.75-7.963,62.363-20.518,91.463-39.183
			c14.549-9.334,28.697-20.283,42.355-33.218c6.826-6.482,13.517-13.508,20.043-21.197
			C3726.768,2597.431,3733.154,2589.183,3739.105,2579.167z"/>
		<path style="fill:#009444;" d="M3610.687,2819.104c-8.694-7.754-17.272-13.69-25.819-19.145
			c-8.541-5.362-17.039-10.043-25.503-14.165c-16.923-8.212-33.716-14.384-50.401-18.894c-33.375-9.021-66.35-11.753-99.022-9.77
			c-32.671,2.04-65.033,8.894-96.995,22.039c-15.98,6.591-31.855,14.85-47.596,25.175c-7.869,5.178-15.703,10.922-23.494,17.355
			c-7.784,6.52-15.537,13.533-23.174,22.38c8.697,7.807,17.279,13.779,25.826,19.258c8.545,5.394,17.043,10.098,25.507,14.235
			c16.925,8.244,33.72,14.419,50.407,18.931c33.371,8.982,66.342,11.671,99.006,9.551c32.661-2.18,65.021-9.076,96.98-22.258
			c15.981-6.592,31.854-14.846,47.599-25.139c7.872-5.162,15.707-10.883,23.498-17.287
			C3595.292,2834.877,3603.047,2827.901,3610.687,2819.104z"/>
		<path style="fill:#006838;" d="M3243.201,2728.891c-9.207-7.141-18.174-12.473-27.075-17.326
			c-8.89-4.764-17.688-8.851-26.415-12.381c-17.447-7.03-34.624-12.033-51.582-15.386c-33.914-6.706-66.999-7.169-99.457-2.943
			c-32.453,4.278-64.269,13.337-95.252,28.649c-15.49,7.672-30.759,17-45.755,28.382c-7.495,5.709-14.915,11.979-22.245,18.932
			c-7.32,7.036-14.572,14.567-21.582,23.917c9.211,7.192,18.184,12.561,27.088,17.438c8.895,4.795,17.697,8.904,26.424,12.45
			c17.451,7.062,34.631,12.071,51.587,15.423c33.911,6.669,66.989,7.09,99.431,2.728c32.434-4.419,64.244-13.521,95.223-28.866
			c15.488-7.674,30.758-16.999,45.76-28.348c7.496-5.691,14.92-11.938,22.254-18.861
			C3228.925,2745.684,3236.182,2738.189,3243.201,2728.891z"/>
		<path style="fill:#F9ED32;" d="M3974.209,1983.783c-11.235-3.078-21.561-4.581-31.641-5.664
			c-10.035-1.005-19.729-1.418-29.141-1.346c-18.811,0.172-36.594,2.111-53.547,5.494c-33.903,6.762-64.654,18.979-93.033,35.287
			c-28.356,16.355-54.295,36.886-77.074,62.877c-11.383,13.008-21.926,27.464-31.437,43.711c-4.745,8.141-9.204,16.77-13.323,25.996
			c-4.073,9.299-7.9,19.028-10.802,30.35c11.259,3.126,21.602,4.656,31.694,5.763c10.051,1.031,19.756,1.462,29.178,1.406
			c18.822-0.144,36.614-2.08,53.563-5.462c33.886-6.797,64.613-19.047,92.927-35.477c28.281-16.477,54.199-37.045,76.963-63.065
			c11.381-13.009,21.929-27.462,31.453-43.682c4.754-8.124,9.227-16.734,13.358-25.935
			C3967.436,2004.758,3971.277,1995.061,3974.209,1983.783z"/>
		<path style="fill:#F9ED32;" d="M3589.41,1600.225c-11.585,1.221-21.748,3.578-31.533,6.236c-9.713,2.716-18.892,5.858-27.633,9.35
			c-17.458,7.005-33.316,15.282-47.877,24.6c-29.119,18.635-53.316,41.204-73.816,66.719
			c-20.462,25.552-37.152,54.113-48.913,86.611c-5.87,16.258-10.431,33.56-13.377,52.154c-1.458,9.309-2.473,18.969-2.952,29.062
			c-0.41,10.143-0.434,20.598,0.982,32.199c11.625-1.185,21.814-3.522,31.619-6.165c9.736-2.697,18.933-5.826,27.688-9.306
			c17.48-6.982,33.35-15.26,47.906-24.577c29.09-18.661,53.254-41.252,73.648-66.857c20.348-25.638,37.006-54.227,48.74-86.746
			c5.868-16.259,10.434-33.559,13.404-52.132c1.473-9.297,2.504-18.944,3.006-29.018
			C3590.734,1622.226,3590.783,1611.795,3589.41,1600.225z"/>
		<path style="fill:#F9ED32;" d="M3264.678,1370.402c-11.291,2.871-21.012,6.661-30.313,10.696
			c-9.223,4.081-17.857,8.507-26.006,13.217c-16.273,9.437-30.781,19.903-43.854,31.214c-26.145,22.619-46.854,48.426-63.481,76.618
			c-16.585,28.223-29.005,58.883-35.981,92.733c-3.478,16.931-5.509,34.709-5.758,53.533c-0.107,9.422,0.275,19.127,1.248,29.185
			c1.05,10.097,2.525,20.448,5.591,31.726c11.335-2.84,21.085-6.616,30.408-10.637c9.249-4.066,17.901-8.482,26.067-13.182
			c16.297-9.418,30.814-19.886,43.884-31.196c26.111-22.641,46.785-48.464,63.296-76.73c16.459-28.292,28.844-58.974,35.792-92.841
			c3.475-16.932,5.511-34.708,5.786-53.516c0.123-9.412-0.238-19.107-1.188-29.148
			C3269.143,1391.986,3267.695,1381.656,3264.678,1370.402z"/>
		<path style="fill:#F9ED32;" d="M2754.533,1176.054c-9.383,6.904-16.967,14.07-24.069,21.306
			c-7.012,7.248-13.349,14.596-19.13,22.023c-11.532,14.862-21.041,30.014-28.903,45.41c-15.724,30.788-25.214,62.487-30.024,94.862
			c-4.76,32.388-4.743,65.468,1.516,99.457c3.143,16.997,7.943,34.235,14.788,51.771c3.443,8.771,7.445,17.622,12.128,26.575
			c4.768,8.962,10.026,17.999,17.106,27.297c9.437-6.893,17.052-14.056,24.18-21.287c7.042-7.245,13.399-14.589,19.2-22.014
			c11.562-14.854,21.078-30.012,28.938-45.405c15.687-30.795,25.137-62.497,29.811-94.896c4.618-32.404,4.56-65.492-1.732-99.486
			c-3.145-16.997-7.939-34.234-14.754-51.766c-3.425-8.768-7.404-17.617-12.059-26.564
			C2766.785,1194.376,2761.561,1185.348,2754.533,1176.054z"/>
		<path style="fill:#F9ED32;" d="M4177.711,2434.786c-9.784-6.322-19.175-10.87-28.461-14.943
			c-9.264-3.984-18.381-7.302-27.377-10.072c-17.986-5.509-35.527-9.023-52.71-10.912c-34.364-3.777-67.368-1.404-99.344,5.586
			c-31.969,7.042-62.892,18.793-92.448,36.704c-14.776,8.969-29.188,19.572-43.156,32.195c-6.979,6.33-13.834,13.212-20.543,20.767
			c-6.688,7.637-13.271,15.761-19.453,25.68c9.793,6.375,19.191,10.955,28.481,15.053c9.272,4.014,18.395,7.353,27.394,10.141
			c17.99,5.539,35.537,9.06,52.718,10.947c34.357,3.739,67.35,1.326,99.3-5.799c31.934-7.18,62.848-18.974,92.399-36.916
			c14.774-8.972,29.189-19.57,43.163-32.163c6.982-6.312,13.844-13.172,20.558-20.698
			C4164.927,2452.742,4171.515,2444.654,4177.711,2434.786z"/>
		<path style="fill:#F9ED32;" d="M4062.348,2734.369c-8.037-8.433-16.106-15.047-24.185-21.174
			c-8.078-6.037-16.169-11.393-24.27-16.186c-16.203-9.557-32.438-17.068-48.706-22.916c-32.533-11.695-65.179-17.092-97.902-17.761
			c-32.73-0.616-65.541,3.592-98.464,14.108c-16.462,5.271-32.951,12.217-49.479,21.229c-8.264,4.526-16.535,9.618-24.823,15.397
			c-8.286,5.865-16.583,12.227-24.909,20.428c8.033,8.486,16.104,15.132,24.18,21.287c8.078,6.068,16.169,11.443,24.27,16.256
			c16.199,9.586,32.439,17.105,48.705,22.951c32.535,11.657,65.178,17.013,97.909,17.544c32.728,0.475,65.541-3.777,98.464-14.325
			c16.461-5.274,32.953-12.216,49.479-21.197c8.264-4.507,16.537-9.576,24.822-15.327
			C4045.726,2748.844,4054.02,2742.518,4062.348,2734.369z"/>
		<g>
			<g>
				<path style="fill:#FFFFFF;" d="M2849.642,2652.128c-5.953,3.927-11.872,7.922-17.756,11.967
					c-11.768,8.095-23.415,16.397-34.955,24.883c-23.071,16.973-45.7,34.66-67.882,53.033
					c-44.338,36.761-86.907,76.23-126.983,118.906c-20.028,21.343-39.422,43.5-58.011,66.579
					c-18.588,23.083-36.375,47.085-53.109,72.142c-6.604,9.889-13.042,19.945-19.297,30.171
					c-7.455-11.95-15.167-23.664-23.106-35.144c-17.09-24.718-35.218-48.379-54.132-71.115
					c-18.918-22.734-38.631-44.541-58.967-65.532c-40.684-41.97-83.825-80.718-128.699-116.743
					c-22.446-18.004-45.336-35.318-68.656-51.916c-11.661-8.295-23.43-16.41-35.319-24.315c-5.947-3.95-11.922-7.849-17.934-11.681
					c-6.016-3.826-12.056-7.608-18.177-11.237c5.291,4.752,10.458,9.627,15.587,14.536c5.125,4.912,10.195,9.876,15.219,14.877
					c10.047,10.01,19.91,20.176,29.612,30.471c19.398,20.596,38.149,41.709,56.232,63.268
					c36.151,43.127,69.687,88.06,99.707,134.602c29.996,46.532,56.478,94.728,77.788,144.07
					c10.648,24.664,19.985,49.604,27.751,74.66c6.124,19.768,11.257,39.606,15.288,59.402c-0.067,1.222-0.11,2.444-0.106,3.66v0.079
					l-74.14,594.095c0,0,48.737,73.538,145.881,69.772s136.147-69.715,136.147-69.772l-67.976-590.884
					c3.546-20.164,8.237-40.419,13.951-60.633c7.118-25.163,15.816-50.263,25.834-75.128c20.053-49.75,45.322-98.519,74.153-145.729
					c28.862-47.224,61.294-92.94,96.392-136.925c17.559-21.988,35.795-43.548,54.697-64.608
					c9.449-10.527,19.068-20.931,28.873-31.181c4.905-5.123,9.855-10.207,14.861-15.244c5.013-5.032,10.064-10.031,15.24-14.913
					C2861.584,2644.325,2855.604,2648.204,2849.642,2652.128z M2541.256,3199.751v-0.002c0-0.007,0-0.008,0.004-0.012
					L2541.256,3199.751z"/>
				<path style="fill:#FFFFFF;" d="M2552.331,2868.399c0,44.762-36.286,81.049-81.047,81.049s-81.051-36.287-81.051-81.049
					s36.29-81.047,81.051-81.047S2552.331,2823.638,2552.331,2868.399z"/>
			</g>
		</g>
	</g>
</g>
</svg>
